PathFileType	4	(X/Y/Z)	/Users/itak/Documents/Research/Walk-IL/dataset/trc/00188_00008.trc
DataRate	CameraRate	NumFrames	NumMarkers	Units	OrigDataRate	OrigDataStartFrame	OrigNumFrames
100.000000	100.000000	4	53	mm	100.000000	101	812
Frame#	Time	RPSI			LPSI			L3			STRN			T10			C7			CLAV			RBAK			LBAK			LSHO			LUPA			LAEL			LAOL			LWTS			LWPS			LFRA			LIFD			LHPS			LHTS			RSHO			RUPA			RAEL			RAOL			RWTS			RWPS			RFRA			RIFD			RHTS			RHPS			RBHD			LFHD			RFHD			LBHD			LHIP			RHIP			RASI			LASI			LKNE			LTHI			LANK			LTIP			LTOE			LMT1			LMT5			LHEE			RKNE			RTHI			RANK			RTIP			RTOE			RMT1			RMT5			RHEE			
		X1	Y1	Z1	X2	Y2	Z2	X3	Y3	Z3	X4	Y4	Z4	X5	Y5	Z5	X6	Y6	Z6	X7	Y7	Z7	X8	Y8	Z8	X9	Y9	Z9	X10	Y10	Z10	X11	Y11	Z11	X12	Y12	Z12	X13	Y13	Z13	X14	Y14	Z14	X15	Y15	Z15	X16	Y16	Z16	X17	Y17	Z17	X18	Y18	Z18	X19	Y19	Z19	X20	Y20	Z20	X21	Y21	Z21	X22	Y22	Z22	X23	Y23	Z23	X24	Y24	Z24	X25	Y25	Z25	X26	Y26	Z26	X27	Y27	Z27	X28	Y28	Z28	X29	Y29	Z29	X30	Y30	Z30	X31	Y31	Z31	X32	Y32	Z32	X33	Y33	Z33	X34	Y34	Z34	X35	Y35	Z35	X36	Y36	Z36	X37	Y37	Z37	X38	Y38	Z38	X39	Y39	Z39	X40	Y40	Z40	X41	Y41	Z41	X42	Y42	Z42	X43	Y43	Z43	X44	Y44	Z44	X45	Y45	Z45	X46	Y46	Z46	X47	Y47	Z47	X48	Y48	Z48	X49	Y49	Z49	X50	Y50	Z50	X51	Y51	Z51	X52	Y52	Z52	X53	Y53	Z53	

102	1.01	203.1930084228516	1021.461303710938	1009.056945800781	189.6342926025391	1027.514282226562	1130.762329101562	193.6204223632812	1064.824951171875	1068.1904296875	-81.67949676513672	1254.54833984375	1037.486083984375	213.5463714599609	1228.832275390625	1085.183715820312	120.4757232666016	1489.759887695312	1083.7060546875	-69.07948303222656	1373.07861328125	1048.114013671875	221.8628692626953	1321.397338867188	990.2488403320312	112.7544403076172	1468.97314453125	1184.177124023438	24.72685623168945	1451.508178710938	1248.23779296875	55.59257125854492	1326.710205078125	1333.623657226562	53.69984817504883	1113.295166015625	1368.875244140625	112.8638381958008	1095.834594726562	1306.041381835938	-26.63429832458496	867.7207641601562	1353.420776367188	49.01345062255859	862.1048583984375	1403.311157226562	48.78522109985352	1004.757019042969	1392.898803710938	-11.98094940185547	693.179443359375	1339.71337890625	36.51266479492188	790.64453125	1405.127685546875	-33.24090194702148	791.2778930664062	1380.137451171875	92.51854705810547	1460.4580078125	895.3667602539062	132.0802307128906	1396.900146484375	834.1765747070312	194.3796691894531	1115.2109375	791.4317626953125	169.2087554931641	1104.298217773438	885.6258544921875	81.87918853759766	875.2799682617188	759.8516845703125	169.4962310791016	867.7572021484375	740.4630126953125	184.5173492431641	1042.190185546875	765.1856079101562	83.07560729980469	682.9332885742188	774.2837524414062	72.59446716308594	777.5072631835938	743.5870971679688	152.9401245117188	781.7948608398438	734.8389892578125	69.69723510742188	1634.874389648438	998.0650024414062	-136.4378662109375	1677.32861328125	1055.341918945312	-90.633056640625	1664.357543945312	933.5092163085938	26.19835090637207	1656.116088867188	1126.569458007812	80.03650665283203	969.3016967773438	1240.585083007812	64.41146087646484	976.4850463867188	869.3443603515625	-22.30509757995605	1003.770263671875	915.7074584960938	-43.82382202148438	997.18359375	1175.291748046875	133.3642730712891	479.0420532226562	1196.451782226562	103.8151931762695	620.2716674804688	1221.866821289062	338.2770080566406	49.239501953125	1190.3984375	233.8365173339844	270.1473999023438	1204.88525390625	118.54638671875	44.47329330444336	1177.0419921875	165.5637817382812	43.79130554199219	1125.416381835938	235.2211608886719	38.70900726318359	1239.178344726562	386.6017456054688	49.81539535522461	1118.135620117188	-130.6784210205078	528.1450805664062	850.1890258789062	-39.80440902709961	778.4688110351562	838.7308349609375	-297.6354675292969	56.54576873779297	834.871826171875	-198.3828735351562	427.5642395019531	847.8255004882812	-468.5712585449219	182.3081665039062	783.0771484375	-450.381103515625	154.9170074462891	843.2868041992188	-373.9851989746094	103.0284957885742	761.6846313476562	-282.040771484375	41.90696334838867	915.2883911132812	
103	1.02	196.5152282714844	1019.634948730469	1006.330017089844	183.5236511230469	1025.898803710938	1128.073364257812	187.2187347412109	1063.123168945312	1065.406372070312	-88.29031372070312	1252.988159179688	1035.11474609375	207.2905883789062	1227.130981445312	1081.971557617188	114.308708190918	1488.088623046875	1080.229858398438	-75.59206390380859	1371.421142578125	1045.237182617188	215.3128204345703	1319.439086914062	986.8265991210938	106.8440780639648	1467.559448242188	1180.784423828125	19.1148624420166	1450.4365234375	1245.225952148438	49.97077941894531	1325.642944335938	1330.653198242188	47.75814819335938	1112.306518554688	1366.539916992188	106.7072296142578	1094.527587890625	1303.605102539062	-33.49019241333008	867.0565795898438	1351.84765625	42.06853485107422	861.1534423828125	1401.247924804688	42.44833374023438	1003.789306640625	1390.749267578125	-20.25293731689453	692.48876953125	1338.188354492188	29.1691837310791	789.7415771484375	1403.187255859375	-40.73341751098633	790.7844848632812	1378.495239257812	85.82571411132812	1458.41015625	892.0241088867188	125.2868347167969	1394.757080078125	830.908203125	187.8703460693359	1113.185668945312	788.6736450195312	162.5937042236328	1102.26904296875	882.8416137695312	76.54371643066406	872.693603515625	757.0009765625	164.1622619628906	865.684326171875	737.8050537109375	178.3075256347656	1040.172729492188	762.4483642578125	78.67690277099609	680.4256591796875	771.6226196289062	67.72819519042969	774.947998046875	740.8153686523438	148.055419921875	779.6275634765625	732.2254028320312	64.26963806152344	1632.985961914062	995.0260620117188	-141.8566131591797	1676.224731445312	1051.671997070312	-95.74476623535156	1663.094360351562	929.9827880859375	20.46551704406738	1654.3779296875	1123.403198242188	74.34967803955078	968.0737915039062	1238.5126953125	57.17008590698242	974.3710327148438	867.3447265625	-29.3556022644043	1001.603271484375	913.9796752929688	-49.78332901000977	995.8161010742188	1173.605346679688	129.6431732177734	478.2704772949219	1195.712890625	99.37576293945312	619.3837890625	1220.68798828125	338.0869445800781	49.8350830078125	1190.038452148438	231.8824005126953	270.2097473144531	1204.392822265625	118.5240249633789	44.43276214599609	1177.1318359375	165.3928527832031	43.47414398193359	1125.318359375	235.1765441894531	38.77521896362305	1239.047241210938	386.3844909667969	50.88253402709961	1117.72021484375	-136.6825256347656	526.2984008789062	847.872314453125	-46.16947555541992	776.4304809570312	836.4707641601562	-307.962646484375	56.17561721801758	832.1620483398438	-205.0858001708984	426.3819885253906	845.0274658203125	-476.8973083496094	183.0118255615234	776.5563354492188	-459.9263000488281	155.7986145019531	837.3406982421875	-382.4303283691406	102.9772567749023	757.258056640625	-293.7141723632812	41.99916839599609	912.8670043945312	
104	1.03	189.6831359863281	1017.838684082031	1003.484252929688	177.2480010986328	1024.299560546875	1125.251953125	180.645263671875	1061.452270507812	1062.501098632812	-95.05874633789062	1251.44921875	1032.614135742188	200.8629455566406	1225.459594726562	1078.61181640625	107.9800033569336	1486.44970703125	1076.588012695312	-82.14828491210938	1369.667114257812	1042.1982421875	208.6015625	1317.505493164062	983.2476806640625	100.7796630859375	1466.184692382812	1177.22216796875	13.3438663482666	1449.400390625	1242.0498046875	44.18211364746094	1324.607666015625	1327.517211914062	41.68982696533203	1111.337158203125	1364.015258789062	100.4365310668945	1093.259643554688	1300.997436523438	-40.42359161376953	866.3870849609375	1350.01220703125	35.00077056884766	860.2232666015625	1398.96337890625	35.98502731323242	1002.837097167969	1388.391357421875	-28.50995063781738	691.8040161132812	1336.483520507812	21.71718215942383	788.8588256835938	1401.006103515625	-48.31964492797852	790.30810546875	1376.575317382812	78.96157836914062	1456.372924804688	888.5142211914062	118.3304595947266	1392.6162109375	827.4758911132812	181.1845855712891	1111.153442382812	785.7633666992188	155.7941284179688	1100.241821289062	879.9044799804688	70.96775817871094	870.1436157226562	753.9756469726562	158.5784606933594	863.607177734375	735.0203247070312	171.9057006835938	1038.14501953125	759.565673828125	73.90943908691406	677.97265625	768.7794189453125	62.56640625	772.4384155273438	737.8565063476562	142.8757019042969	777.4752197265625	729.4749755859375	58.70718383789062	1631.132080078125	991.8121337890625	-147.3967742919922	1675.183349609375	1047.84716796875	-100.9807205200195	1661.885620117188	926.2948608398438	14.62722110748291	1652.676635742188	1120.060424804688	68.50380706787109	966.8671875	1236.308715820312	49.77375793457031	972.3057250976562	865.2255859375	-36.53607940673828	999.4617309570312	912.1499633789062	-55.90401458740234	994.475830078125	1171.802978515625	125.9481658935547	477.6101379394531	1195.042114257812	94.89264678955078	618.58349609375	1219.466430664062	337.8558044433594	50.5224609375	1189.745849609375	229.9191741943359	270.3985595703125	1203.919799804688	118.4986343383789	44.39113616943359	1177.238891601562	165.2138366699219	43.19501495361328	1125.271484375	235.1051788330078	38.82858276367188	1238.906005859375	386.1571350097656	52.16071319580078	1117.385009765625	-142.9262390136719	524.4719848632812	845.4529418945312	-52.73292541503906	774.46337890625	834.1253662109375	-317.5408325195312	55.4956169128418	829.4581909179688	-211.8618011474609	425.0645141601562	842.1459350585938	-484.6495056152344	183.0084075927734	770.0997314453125	-468.8548889160156	156.0377502441406	831.3875732421875	-390.1895751953125	102.41943359375	752.8966064453125	-304.5724182128906	41.84622955322266	910.4930419921875	
105	1.04	182.6932067871094	1016.091369628906	1000.524780273438	170.7915496826172	1022.739318847656	1122.302124023438	173.891357421875	1059.831787109375	1059.478515625	-101.9958877563477	1249.951782226562	1029.970092773438	194.2544860839844	1223.831787109375	1075.110961914062	101.4828338623047	1484.861206054688	1072.782958984375	-88.77564239501953	1367.887329101562	1039.027954101562	201.7259063720703	1315.612670898438	979.5179443359375	94.55570983886719	1464.865356445312	1173.491577148438	7.381070613861084	1448.390747070312	1238.6904296875	38.22783279418945	1323.61279296875	1324.208618164062	35.49245071411133	1110.398315429688	1361.292236328125	94.04349517822266	1092.041748046875	1298.207397460938	-47.47303009033203	865.7195434570312	1347.878295898438	27.82011604309082	859.3262329101562	1396.453857421875	29.40010452270508	1001.91259765625	1385.817260742188	-36.76512145996094	691.1526489257812	1334.552001953125	14.16991996765137	788.0091552734375	1398.584716796875	-55.98471450805664	789.8478393554688	1374.386596679688	71.92835235595703	1454.36181640625	884.8388061523438	111.2102966308594	1390.489501953125	823.8818359375	174.3153686523438	1109.125732421875	782.6934204101562	148.81005859375	1098.231079101562	876.812255859375	65.13877868652344	867.64794921875	750.797119140625	152.7300567626953	861.5377807617188	732.106689453125	165.2986450195312	1036.119384765625	756.53369140625	68.76841735839844	675.5867919921875	765.7620239257812	57.09621429443359	769.9873657226562	734.7306518554688	137.3905792236328	775.3484497070312	726.5874633789062	52.99993515014648	1629.335205078125	988.423583984375	-153.0689849853516	1674.217529296875	1043.863403320312	-106.3493728637695	1660.744750976562	922.44482421875	8.674180030822754	1651.031860351562	1116.542236328125	62.46821975708008	965.697509765625	1233.967041015625	42.23211288452148	970.3106079101562	862.9776000976562	-43.84613800048828	997.3690795898438	910.1906127929688	-62.20668029785156	993.1751098632812	1169.865356445312	122.26611328125	477.0854187011719	1194.453247070312	90.34423828125	617.8885498046875	1218.192749023438	337.5857238769531	51.33657455444336	1189.548828125	227.9217987060547	270.7122802734375	1203.465209960938	118.4721374511719	44.3514518737793	1177.358154296875	165.0352630615234	42.97506713867188	1125.2861328125	235.0033111572266	38.87158203125	1238.760009765625	385.9215698242188	53.67838668823242	1117.164306640625	-149.4066619873047	522.6800537109375	842.9288940429688	-59.50834655761719	772.5947875976562	831.6897583007812	-326.3412780761719	54.50583267211914	826.81689453125	-218.7057952880859	423.620361328125	839.1921997070312	-491.850341796875	182.2910003662109	763.7615966796875	-477.1755676269531	155.6289825439453	825.4946899414062	-397.2839050292969	101.3450469970703	748.6511840820312	-314.6282348632812	41.41904067993164	908.1983032226562	
